<?xml version="1.0" standalone="no"?>
<!DOCTYPE svg PUBLIC "-//W3C//DTD SVG 20010904//EN"
 "http://www.w3.org/TR/2001/REC-SVG-20010904/DTD/svg10.dtd">
<svg version="1.0" xmlns="http://www.w3.org/2000/svg"
 width="148.000000pt" height="148.000000pt" viewBox="0 0 148.000000 148.000000"
 preserveAspectRatio="xMidYMid meet">
<metadata>
Created by potrace 1.14, written by Peter Selinger 2001-2017
</metadata>
<g transform="translate(0.000000,148.000000) scale(0.100000,-0.100000)"
fill="#000000" stroke="none">
<path d="M239 1465 c-15 -8 -32 -29 -38 -46 -15 -45 -15 -1313 0 -1358 21 -61
20 -61 539 -61 519 0 518 0 539 61 8 22 11 205 11 583 l0 551 -131 143 -131
142 -382 0 c-312 -1 -386 -3 -407 -15z m743 -187 l3 -123 113 -3 112 -3 0
-534 0 -535 -470 0 -470 0 0 660 0 660 355 0 354 0 3 -122z m139 -9 l41 -49
-56 0 -56 0 0 61 c0 71 2 70 71 -12z"/>
<path d="M382 1048 l3 -23 345 0 c338 0 345 0 345 20 0 20 -8 20 -348 23
l-348 2 3 -22z"/>
<path d="M387 873 c-4 -3 -7 -15 -7 -25 0 -17 15 -18 348 -16 339 3 347 3 347
23 0 20 -8 20 -341 23 -187 1 -343 -1 -347 -5z"/>
<path d="M392 691 c-8 -5 -12 -17 -10 -27 3 -18 19 -19 339 -22 290 -2 338 0
349 13 10 12 10 18 0 30 -11 13 -61 15 -339 15 -179 0 -332 -4 -339 -9z"/>
<path d="M384 495 c-4 -8 -4 -22 0 -30 8 -23 667 -23 686 0 10 12 10 18 0 30
-11 13 -62 15 -347 15 -287 0 -334 -2 -339 -15z"/>
</g>
</svg>
